<svg id="Capa_1" enable-background="new 0 0 512 512" height="512" viewBox="0 0 512 512" width="512" xmlns="http://www.w3.org/2000/svg"><g><path d="m472.895 39.122c-25.217-25.228-58.744-39.122-94.407-39.122s-69.19 13.894-94.407 39.122-39.105 58.77-39.105 94.448c0 2.588.074 5.164.219 7.727l-209.643 242.254 35.883 35.898-71.435 71.341 21.164 21.21 71.453-71.358 35.998 36.014 242.15-209.734c2.562.145 5.137.219 7.723.219 35.662 0 69.19-13.894 94.407-39.122 25.217-25.229 39.105-58.771 39.105-94.449s-13.888-69.22-39.105-94.448zm-21.183 21.192c19.559 19.567 30.331 45.583 30.331 73.256 0 22.613-7.193 44.119-20.495 61.905l-144.929-144.993c18.28-13.642 40.074-20.464 61.869-20.464 26.518.001 53.036 10.099 73.224 30.296zm-375.264 321.768 26.212-30.289 57.701 57.725-30.276 26.223zm106.619 7.769-60.749-60.775 130.347-150.624c6.554 18.431 17.179 35.323 31.416 49.566 14.236 14.242 31.121 24.872 49.544 31.429zm122.197-183.025c-19.559-19.567-30.33-45.583-30.33-73.257 0-22.612 7.192-44.118 20.495-61.904l144.937 145c-17.778 13.308-39.275 20.504-61.877 20.504-27.661.001-53.667-10.775-73.225-30.343z"/><path d="m237.324 244.824h29.964v29.964h-29.964z" transform="matrix(.707 -.707 .707 .707 -109.811 254.433)"/><path d="m194.959 287.209h29.963v29.963h-29.963z" transform="matrix(.707 -.707 .707 .707 -152.176 236.882)"/></g></svg>